<?xml version="1.0" encoding="utf-8"?>
<!-- Svg Vector Icons : http://www.sfont.cn -->
<!DOCTYPE svg PUBLIC "-//W3C//DTD SVG 1.1//EN" "http://www.w3.org/Graphics/SVG/1.1/DTD/svg11.dtd">
<svg version="1.1" xmlns="http://www.w3.org/2000/svg" xmlns:xlink="http://www.w3.org/1999/xlink" x="0px" y="0px" viewBox="0 0 1000 1000" enable-background="new 0 0 1000 1000" xml:space="preserve">
<metadata> Svg Vector Icons : http://www.sfont.cn </metadata>
<g><g><g><path d="M907.6,298.1c-4.4-25.5-25.8-57.6-47.6-71.7L539.5,20.5c-21.9-14-57.2-13.9-79,0.2L141.9,228.1c-21.8,14.1-43,46.4-47.5,71.9L50.2,551.6c-1.5,8.6,0.4,19.8,4.2,25.2c3.8,5.4,13.2,6.7,21,2.9l382.3-187.8c23.3-11.4,61.1-11.5,84.4-0.1l384.4,187.9c7.8,3.8,16.5,0.3,19.4-7.9l1.1-2.8c3-8.1,4.2-21.7,2.7-30.2L907.6,298.1z"/><path d="M457.6,434.8l-344.5,167l18.2,341.4c1.4,25.9,23.5,46.9,49.5,46.9h169.8c26,0,47.9-1.3,48.9-2.9c1.1-1.6,1.9-24,1.9-49.9V757.9c6.8-0.1,13.1-1.7,18.8-4.7c11.9,6.3,27.8,6.1,39.6-0.4c12.1,6.7,28.3,6.7,40.4,0c12,6.6,28.2,6.7,40.3,0.1c12.2,6.7,28.6,6.6,40.6-0.3c5.8,3.3,12.4,5,19.4,5.2v179.3c0,25.9,0.6,48.3,1.4,49.9c0.8,1.6,22.4,2.9,48.4,2.9h170.9c26,0,47.5-21,48.1-47l8.6-356.4L542.6,433.8C519.1,423.1,481,423.5,457.6,434.8z M262.1,850.9h-47v-41.1h47V850.9z M262.1,794.2h-47v-52.9h47V794.2z M324.8,850.9h-47v-41.1h47V850.9z M324.8,794.2h-47v-52.9h47V794.2z M738.9,741.3H781v48h-42.1V741.3z M738.9,805H781v46h-42.1V805z M671.4,741.3h51.9v48h-51.9V741.3z M671.4,805h51.9v46h-51.9V805z M616.8,715.1c0.1,0.1,0.1,0.2,0.2,0.3l4.2,5.6h-0.4c1,2.4,1.6,4.9,1.6,7.6c0,10.5-8.5,18.9-19,18.9c-8.6,0-15.5-5.9-17.9-13.7h-5.4c-2.3,7.9-9.3,13.7-17.9,13.7c-8.6,0-15.5-5.9-17.9-13.7H540c-2.3,7.9-9.3,13.7-17.8,13.7c-8.6,0-15.6-5.9-17.9-13.7h-4.6c-2.3,7.9-9.3,13.7-17.9,13.7c-8.6,0-15.6-5.9-17.9-13.7h-4.6c-2.3,7.9-9.3,13.7-17.9,13.7c-8.6,0-15.5-5.9-17.9-13.7h-3.1c-2.3,7.9-9.3,13.7-17.9,13.7c-10.4,0-18.9-8.5-18.9-18.9c0-4.2,1.7-7.9,4-11.1l18.2-27.8h191.9L616.8,715.1z M582.3,599.4H423.7V484.8h158.6V599.4z"/></g></g><g></g><g></g><g></g><g></g><g></g><g></g><g></g><g></g><g></g><g></g><g></g><g></g><g></g><g></g><g></g></g>
</svg>